<svg height="1235" width="1024" xmlns="http://www.w3.org/2000/svg"><g transform="matrix(20.815 0 0 20.815 -10543.942 -4317.067)"><g fill="#4bc0ad"><path d="m535.193 213.988-3.439-6.37-5.671 6.372h.971l1.306-1.47h3.864l.792 1.468z"/><path d="m521.624 210.94h-1.825l2.693 3.048h2.469l-2.5-2.663c3.453 0 3.272-1.992 3.272-1.992 0-1.61-2.684-1.543-2.684-1.543h-4.683l-1.113 6.198h1.992l1.021-5.676h1.944s1.303-.025 1.303 1.089c0 0 .026 1.542-1.889 1.539"/><path d="m540.676 208.405h3.35l.087-.615h-8.775l-.085.616h3.347l-1.007 5.582h2.076z"/><path d="m546.563 213.988.461-2.533h-.001 2.732c3.454 0 3.294-2.122 3.294-2.122 0-1.61-2.683-1.543-2.683-1.543h-4.683l-1.114 6.198z"/><path d="m523.21 227.911c2.755-2.925 6.69-4.939 11.025-4.939 8.341 0 15.104 6.681 15.104 15.024 0 5.561-3.063 11.134-7.54 13.754-.63 2.126-1.063 3.733-1.27 6.431 8.775-2.658 15.07-10.543 15.07-20.185 0-11.8-9.484-20.964-21.284-20.964-6.735 0-12.62 3.036-16.536 7.905 0 0 3.106.875 5.435 2.959"/><path d="m519.753 233.887c-.455 1.441-.582 2.518-.582 4.109 0 8.64 6.868 15.225 15.209 15.225-.467 1.909-.722 3.417-.915 5.607-1.609-.018-3.177-.132-4.684-.493-9.201-2.203-16.091-10.424-15.912-20.339.046-2.5.315-4.643 1.219-6.886 0 0 3.215.231 5.665 2.777"/></g><path d="m534.02 233.247s.164 1.548.294 2.548c0 0 .012.306.441.428l1.17.377s.859.268.753 1.153l-.123 1.395s.454-.702 1.191-.662c0 0 .99.119.97 1.119 0 0-.08 1.046.255 1.342 0 0 .255.523 1.798.671.697.053 1.249.415 1.249.415 1.153.899.348 2.363.348 2.363s-2.25 4.857-3.236 9.481c0 0-2.07 7.32-.151 12.66h-2.705c-2.925-8.962 2.985-21.311 2.985-21.311s.665-1.22-.221-1.38c-.32-.06-.377-.069-.765-.141 0 0-1.472-.087-1.14-1.905.241-1.332-.859-.679-.859-.679-1.18.631-1.261-.308-1.261-.308-.053-.483-.135-1.261-.135-1.261-.053-.51-.348-.55-.348-.55l-1.31-.277c-.975-.239-.997-1.133-.997-1.133l-.189-2.306c-.026-1.031-1.034-.725-1.034-.725-.59.16-2.507.442-2.507.442s-1.117.295-2.815-.1c-1.277-.351-2.897-1.201-4.78-2.812-1.824-1.623-4.212-2.509-4.212-2.509-4.883-1.636-9.883.499-9.883.499v-2.819s4.193-2.255 10.097-.457c0 0 2.952.685 6.171 3.476 0 0 1.055.924 2.325 1.567 0 0 1.248.763 3.175.494 2.348-.36 3.734-.416 3.734-.416s1.619-.18 1.715 1.321" fill="#004fa3"/><path d="m531.918 211.968-1.174-2.132-1.893 2.132z" fill="#fff"/><path d="m547.583 208.312-.457 2.58h1.815c1.914.003 1.888-1.491 1.888-1.491 0-1.114-1.301-1.089-1.301-1.089z" fill="#fff"/></g></svg>